<svg viewBox="0 0 35 35" xmlns="http://www.w3.org/2000/svg">
<path d="M17.5 0C27.1652 0 35 7.83475 35 17.5C35 27.1652 27.1652 35 17.5 35C7.83475 35 0 27.1652 0 17.5C0 7.83475 7.83475 0 17.5 0ZM23.6862 11.1667L15.0238 19.8293L11.3138 16.1175C11.1513 15.9549 10.9584 15.8259 10.746 15.7379C10.5337 15.6498 10.3061 15.6045 10.0762 15.6044C9.61202 15.6042 9.16675 15.7885 8.83838 16.1166C8.51 16.4448 8.32543 16.8899 8.32527 17.3541C8.32511 17.8184 8.50936 18.2636 8.8375 18.592L13.664 23.4185C13.8428 23.5973 14.055 23.7392 14.2886 23.836C14.5222 23.9328 14.7726 23.9826 15.0255 23.9826C15.2784 23.9826 15.5288 23.9328 15.7624 23.836C15.996 23.7392 16.2082 23.5973 16.387 23.4185L26.1625 13.643C26.4909 13.3146 26.6753 12.8693 26.6753 12.4049C26.6753 11.9405 26.4909 11.4951 26.1625 11.1667C25.8341 10.8384 25.3888 10.6539 24.9244 10.6539C24.46 10.6539 24.0146 10.8384 23.6862 11.1667Z" />
</svg>
