<svg width="18" height="19" viewBox="0 0 18 19"  xmlns="http://www.w3.org/2000/svg">
<path d="M14.4 14.9C14.8774 14.9 15.3352 15.0896 15.6728 15.4272C16.0104 15.7648 16.2 16.2226 16.2 16.7C16.2 17.1774 16.0104 17.6352 15.6728 17.9728C15.3352 18.3104 14.8774 18.5 14.4 18.5C13.9226 18.5 13.4648 18.3104 13.1272 17.9728C12.7896 17.6352 12.6 17.1774 12.6 16.7C12.6 15.701 13.401 14.9 14.4 14.9ZM0 0.5H2.943L3.789 2.3H17.1C17.3387 2.3 17.5676 2.39482 17.7364 2.5636C17.9052 2.73239 18 2.9613 18 3.2C18 3.353 17.955 3.506 17.892 3.65L14.67 9.473C14.364 10.022 13.77 10.4 13.095 10.4H6.39L5.58 11.867L5.553 11.975C5.553 12.0347 5.5767 12.0919 5.6189 12.1341C5.6611 12.1763 5.71833 12.2 5.778 12.2H16.2V14H5.4C4.92261 14 4.46477 13.8104 4.12721 13.4728C3.78964 13.1352 3.6 12.6774 3.6 12.2C3.6 11.885 3.681 11.588 3.816 11.336L5.04 9.131L1.8 2.3H0V0.5ZM5.4 14.9C5.87739 14.9 6.33523 15.0896 6.67279 15.4272C7.01036 15.7648 7.2 16.2226 7.2 16.7C7.2 17.1774 7.01036 17.6352 6.67279 17.9728C6.33523 18.3104 5.87739 18.5 5.4 18.5C4.92261 18.5 4.46477 18.3104 4.12721 17.9728C3.78964 17.6352 3.6 17.1774 3.6 16.7C3.6 15.701 4.401 14.9 5.4 14.9ZM13.5 8.6L16.002 4.1H4.626L6.75 8.6H13.5Z" />
</svg>
