<svg viewBox="0 0 18 18" fill="none" xmlns="http://www.w3.org/2000/svg">
<path d="M9 0C11.3869 0 13.6761 0.948212 15.364 2.63604C17.0518 4.32387 18 6.61305 18 9C18 11.3869 17.0518 13.6761 15.364 15.364C13.6761 17.0518 11.3869 18 9 18C6.61305 18 4.32387 17.0518 2.63604 15.364C0.948212 13.6761 0 11.3869 0 9C0 6.61305 0.948212 4.32387 2.63604 2.63604C4.32387 0.948212 6.61305 0 9 0ZM1.6875 9C1.6875 10.9394 2.45792 12.7994 3.82928 14.1707C5.20064 15.5421 7.0606 16.3125 9 16.3125C10.9394 16.3125 12.7994 15.5421 14.1707 14.1707C15.5421 12.7994 16.3125 10.9394 16.3125 9C16.3125 7.0606 15.5421 5.20064 14.1707 3.82928C12.7994 2.45792 10.9394 1.6875 9 1.6875C7.0606 1.6875 5.20064 2.45792 3.82928 3.82928C2.45792 5.20064 1.6875 7.0606 1.6875 9ZM9.5625 5.34375V8.70975L11.844 9.62325C12.0451 9.71089 12.2041 9.87338 12.2874 10.0763C12.3707 10.2792 12.3717 10.5065 12.2902 10.7102C12.2087 10.9138 12.0511 11.0777 11.8509 11.1671C11.6506 11.2566 11.4234 11.2645 11.2174 11.1893L8.40488 10.0643C8.24847 10.0016 8.11441 9.89349 8.01997 9.75394C7.92553 9.61438 7.87504 9.44975 7.875 9.28125V5.34375C7.875 5.11997 7.96389 4.90536 8.12213 4.74713C8.28036 4.58889 8.49497 4.5 8.71875 4.5C8.94253 4.5 9.15714 4.58889 9.31537 4.74713C9.4736 4.90536 9.5625 5.11997 9.5625 5.34375Z" />
</svg>
