<svg viewBox="0 0 16 16" fill="none" xmlns="http://www.w3.org/2000/svg">
<path fill-rule="evenodd" clip-rule="evenodd" d="M3.70109 1.03445C3.34343 0.70117 2.87036 0.519731 2.38156 0.528355C1.89276 0.536979 1.42639 0.734994 1.0807 1.08068C0.735009 1.42637 0.536994 1.89274 0.52837 2.38154C0.519746 2.87034 0.701185 3.34341 1.03446 3.70108L5.36145 8.02806L1.03446 12.355C0.701185 12.7127 0.519746 13.1858 0.52837 13.6746C0.536994 14.1634 0.735009 14.6297 1.0807 14.9754C1.42639 15.3211 1.89276 15.5191 2.38156 15.5278C2.87036 15.5364 3.34343 15.3549 3.70109 15.0217L8.02808 10.6947L12.3551 15.0217C12.7127 15.3549 13.1858 15.5364 13.6746 15.5278C14.1634 15.5191 14.6298 15.3211 14.9755 14.9754C15.3211 14.6297 15.5192 14.1634 15.5278 13.6746C15.5364 13.1858 15.355 12.7127 15.0217 12.355L10.6947 8.02806L15.0217 3.70108C15.355 3.34341 15.5364 2.87034 15.5278 2.38154C15.5192 1.89274 15.3211 1.42637 14.9755 1.08068C14.6298 0.734994 14.1634 0.536979 13.6746 0.528355C13.1858 0.519731 12.7127 0.70117 12.3551 1.03445L8.02808 5.36143L3.70109 1.03445Z" />
</svg>
