<svg viewBox="0 0 30 30" fill="none" xmlns="http://www.w3.org/2000/svg">
<path d="M15 0C12.0333 0 9.13319 0.879734 6.66645 2.52796C4.19972 4.17618 2.27713 6.51886 1.14181 9.25975C0.00649929 12.0006 -0.290551 15.0166 0.288227 17.9264C0.867006 20.8361 2.29562 23.5088 4.3934 25.6066C6.49119 27.7044 9.16394 29.133 12.0737 29.7118C14.9834 30.2906 17.9994 29.9935 20.7403 28.8582C23.4811 27.7229 25.8238 25.8003 27.472 23.3335C29.1203 20.8668 30 17.9667 30 15C30 11.0218 28.4196 7.20644 25.6066 4.3934C22.7936 1.58035 18.9783 0 15 0ZM13.1375 7.5C13.1375 7.00272 13.335 6.5258 13.6867 6.17417C14.0383 5.82254 14.5152 5.625 15.0125 5.625C15.5098 5.625 15.9867 5.82254 16.3383 6.17417C16.69 6.5258 16.8875 7.00272 16.8875 7.5V16.1125C16.8875 16.3587 16.839 16.6025 16.7448 16.83C16.6505 17.0575 16.5124 17.2642 16.3383 17.4383C16.1642 17.6124 15.9575 17.7505 15.73 17.8448C15.5025 17.939 15.2587 17.9875 15.0125 17.9875C14.7663 17.9875 14.5225 17.939 14.295 17.8448C14.0675 17.7505 13.8608 17.6124 13.6867 17.4383C13.5126 17.2642 13.3745 17.0575 13.2802 16.83C13.186 16.6025 13.1375 16.3587 13.1375 16.1125V7.5ZM15 24.375C14.5748 24.375 14.1591 24.2489 13.8055 24.0127C13.452 23.7764 13.1764 23.4406 13.0137 23.0478C12.8509 22.6549 12.8084 22.2226 12.8913 21.8056C12.9743 21.3885 13.179 21.0054 13.4797 20.7047C13.7804 20.404 14.1635 20.1993 14.5806 20.1163C14.9976 20.0334 15.4299 20.0759 15.8228 20.2387C16.2156 20.4014 16.5514 20.677 16.7877 21.0305C17.0239 21.3841 17.15 21.7998 17.15 22.225C17.15 22.7952 16.9235 23.3421 16.5203 23.7453C16.1171 24.1485 15.5702 24.375 15 24.375Z" />
</svg>
