<svg viewBox="0 0 17 17" xmlns="http://www.w3.org/2000/svg">
<path d="M7.59375 1.96875V0.84375C7.59375 0.619974 7.68264 0.405362 7.84088 0.247129C7.99911 0.0888949 8.21372 0 8.4375 0C8.66128 0 8.87589 0.0888949 9.03412 0.247129C9.19235 0.405362 9.28125 0.619974 9.28125 0.84375V1.96875C9.28125 2.19253 9.19235 2.40714 9.03412 2.56537C8.87589 2.72361 8.66128 2.8125 8.4375 2.8125C8.21372 2.8125 7.99911 2.72361 7.84088 2.56537C7.68264 2.40714 7.59375 2.19253 7.59375 1.96875ZM13.2188 8.4375C13.2188 9.38314 12.9383 10.3075 12.413 11.0938C11.8876 11.8801 11.1409 12.4929 10.2672 12.8548C9.39355 13.2167 8.4322 13.3114 7.50472 13.1269C6.57725 12.9424 5.72532 12.487 5.05665 11.8184C4.38798 11.1497 3.93261 10.2977 3.74812 9.37028C3.56363 8.4428 3.65832 7.48145 4.0202 6.60779C4.38208 5.73414 4.99491 4.98741 5.78118 4.46204C6.56745 3.93667 7.49186 3.65625 8.4375 3.65625C9.70517 3.65755 10.9205 4.16171 11.8169 5.05808C12.7133 5.95446 13.2174 7.16983 13.2188 8.4375ZM11.5312 8.4375C11.5312 7.82561 11.3498 7.22747 11.0099 6.7187C10.6699 6.20994 10.1867 5.81341 9.62143 5.57925C9.05612 5.34509 8.43407 5.28382 7.83394 5.4032C7.23381 5.52257 6.68256 5.81722 6.24989 6.24989C5.81722 6.68256 5.52257 7.23381 5.4032 7.83394C5.28382 8.43407 5.34509 9.05612 5.57925 9.62143C5.81341 10.1867 6.20994 10.6699 6.7187 11.0099C7.22747 11.3498 7.82561 11.5312 8.4375 11.5312C9.25773 11.5303 10.0441 11.2041 10.6241 10.6241C11.2041 10.0441 11.5303 9.25773 11.5312 8.4375ZM3.0593 4.2532C3.13778 4.33169 3.23096 4.39395 3.3335 4.43642C3.43605 4.4789 3.54596 4.50076 3.65695 4.50076C3.76795 4.50076 3.87786 4.4789 3.9804 4.43642C4.08295 4.39395 4.17612 4.33169 4.25461 4.2532C4.33309 4.17472 4.39535 4.08154 4.43783 3.979C4.4803 3.87645 4.50217 3.76654 4.50217 3.65555C4.50217 3.54455 4.4803 3.43464 4.43783 3.3321C4.39535 3.22955 4.33309 3.13638 4.25461 3.05789L3.41086 2.21414C3.25235 2.05563 3.03737 1.96658 2.8132 1.96658C2.58904 1.96658 2.37406 2.05563 2.21555 2.21414C2.05704 2.37265 1.96799 2.58763 1.96799 2.8118C1.96799 3.03596 2.05704 3.25094 2.21555 3.40945L3.0593 4.2532ZM3.0593 12.6204L2.21555 13.4641C2.13706 13.5426 2.0748 13.6358 2.03233 13.7383C1.98985 13.8409 1.96799 13.9508 1.96799 14.0618C1.96799 14.1728 1.98985 14.2827 2.03233 14.3852C2.0748 14.4878 2.13706 14.581 2.21555 14.6595C2.37406 14.818 2.58904 14.907 2.8132 14.907C2.9242 14.907 3.03411 14.8851 3.13665 14.8427C3.2392 14.8002 3.33237 14.7379 3.41086 14.6595L4.25461 13.8157C4.41312 13.6572 4.50217 13.4422 4.50217 13.218C4.50217 12.9939 4.41312 12.7789 4.25461 12.6204C4.0961 12.4619 3.88112 12.3728 3.65695 12.3728C3.43279 12.3728 3.21781 12.4619 3.0593 12.6204ZM13.2188 4.5C13.3296 4.50009 13.4394 4.47834 13.5418 4.43599C13.6442 4.39364 13.7373 4.33153 13.8157 4.2532L14.6595 3.40945C14.7379 3.33097 14.8002 3.23779 14.8427 3.13525C14.8851 3.0327 14.907 2.92279 14.907 2.8118C14.907 2.7008 14.8851 2.59089 14.8427 2.48835C14.8002 2.3858 14.7379 2.29263 14.6595 2.21414C14.581 2.13566 14.4878 2.0734 14.3852 2.03092C14.2827 1.98845 14.1728 1.96658 14.0618 1.96658C13.9508 1.96658 13.8409 1.98845 13.7383 2.03092C13.6358 2.0734 13.5426 2.13566 13.4641 2.21414L12.6204 3.05789C12.5017 3.1759 12.4208 3.32656 12.3879 3.49069C12.3551 3.65482 12.3718 3.82501 12.4359 3.97962C12.5001 4.13422 12.6088 4.26625 12.7482 4.35892C12.8876 4.45158 13.0514 4.50069 13.2188 4.5ZM13.8157 12.6218C13.6572 12.4633 13.4422 12.3742 13.218 12.3742C12.9939 12.3742 12.7789 12.4633 12.6204 12.6218C12.4619 12.7803 12.3728 12.9953 12.3728 13.2195C12.3728 13.4436 12.4619 13.6586 12.6204 13.8171L13.4641 14.6609C13.6226 14.8194 13.8376 14.9084 14.0618 14.9084C14.286 14.9084 14.5009 14.8194 14.6595 14.6609C14.818 14.5024 14.907 14.2874 14.907 14.0632C14.907 13.839 14.818 13.6241 14.6595 13.4655L13.8157 12.6218ZM2.8125 8.4375C2.8125 8.21372 2.72361 7.99911 2.56537 7.84088C2.40714 7.68264 2.19253 7.59375 1.96875 7.59375H0.84375C0.619974 7.59375 0.405362 7.68264 0.247129 7.84088C0.0888949 7.99911 0 8.21372 0 8.4375C0 8.66128 0.0888949 8.87589 0.247129 9.03412C0.405362 9.19235 0.619974 9.28125 0.84375 9.28125H1.96875C2.19253 9.28125 2.40714 9.19235 2.56537 9.03412C2.72361 8.87589 2.8125 8.66128 2.8125 8.4375ZM8.4375 14.0625C8.21372 14.0625 7.99911 14.1514 7.84088 14.3096C7.68264 14.4679 7.59375 14.6825 7.59375 14.9062V16.0312C7.59375 16.255 7.68264 16.4696 7.84088 16.6279C7.99911 16.7861 8.21372 16.875 8.4375 16.875C8.66128 16.875 8.87589 16.7861 9.03412 16.6279C9.19235 16.4696 9.28125 16.255 9.28125 16.0312V14.9062C9.28125 14.6825 9.19235 14.4679 9.03412 14.3096C8.87589 14.1514 8.66128 14.0625 8.4375 14.0625ZM16.0312 7.59375H14.9062C14.6825 7.59375 14.4679 7.68264 14.3096 7.84088C14.1514 7.99911 14.0625 8.21372 14.0625 8.4375C14.0625 8.66128 14.1514 8.87589 14.3096 9.03412C14.4679 9.19235 14.6825 9.28125 14.9062 9.28125H16.0312C16.255 9.28125 16.4696 9.19235 16.6279 9.03412C16.7861 8.87589 16.875 8.66128 16.875 8.4375C16.875 8.21372 16.7861 7.99911 16.6279 7.84088C16.4696 7.68264 16.255 7.59375 16.0312 7.59375Z" />
</svg>
