<svg viewBox="0 0 15 15" xmlns="http://www.w3.org/2000/svg">
<path d="M14.6516 8.67244C14.5433 8.56398 14.4076 8.48704 14.259 8.44988C14.1103 8.41272 13.9543 8.41674 13.8078 8.4615C12.7841 8.77054 11.6958 8.79611 10.6588 8.5355C9.62171 8.27489 8.67477 7.73786 7.91881 6.98161C7.16285 6.22536 6.62618 5.27821 6.36597 4.24106C6.10575 3.20391 6.13174 2.1156 6.44117 1.09205C6.48631 0.94545 6.49063 0.789318 6.45367 0.640446C6.41671 0.491574 6.33986 0.355593 6.2314 0.247129C6.12294 0.138664 5.98696 0.0618198 5.83808 0.0248596C5.68921 -0.0121006 5.53308 -0.00777815 5.38648 0.0373622C3.84691 0.510562 2.49585 1.45736 1.52562 2.74299C0.677161 3.87072 0.159752 5.21259 0.0314502 6.61801C-0.0968515 8.02343 0.169031 9.43681 0.799263 10.6995C1.42949 11.9623 2.39914 13.0244 3.5994 13.7667C4.79965 14.5091 6.18302 14.9022 7.59429 14.9021C9.24195 14.9069 10.8457 14.3712 12.1597 13.377C13.4446 12.4058 14.3904 11.054 14.8625 9.51408C14.9068 9.36784 14.9107 9.2123 14.8735 9.06407C14.8364 8.91584 14.7596 8.78048 14.6516 8.67244ZM11.1444 12.0292C10.0071 12.8853 8.5988 13.3019 7.17874 13.2023C5.75868 13.1027 4.42239 12.4935 3.41579 11.4869C2.40918 10.4803 1.80001 9.14399 1.70037 7.72393C1.60073 6.30387 2.01734 4.8956 2.87351 3.7583C3.32399 3.16234 3.88233 2.65624 4.51953 2.26627C4.50687 2.44627 4.50054 2.62697 4.50054 2.80838C4.50278 4.82168 5.30355 6.75188 6.72717 8.1755C8.15079 9.59912 10.081 10.3999 12.0943 10.4021C12.2757 10.4021 12.4564 10.3958 12.6364 10.3831C12.2466 11.0204 11.7404 11.5788 11.1444 12.0292Z" />
</svg>
