<svg width="16" height="10" viewBox="0 0 16 10" xmlns="http://www.w3.org/2000/svg">
<path fill-rule="evenodd" clip-rule="evenodd" d="M8.8644 9.2335C8.63904 9.46817 8.33343 9.60001 8.01477 9.60001C7.69611 9.60001 7.3905 9.46817 7.16514 9.2335L0.366878 2.15218C0.252099 2.03671 0.160547 1.89858 0.0975654 1.74586C0.0345832 1.59313 0.00143161 1.42887 4.5009e-05 1.26266C-0.00134159 1.09645 0.0290649 0.93162 0.0894895 0.777781C0.149914 0.623942 0.239147 0.484177 0.351982 0.366644C0.464817 0.249111 0.598993 0.156162 0.746683 0.0932216C0.894373 0.030281 1.05262 -0.00139097 1.21218 5.33441e-05C1.37175 0.00149766 1.52944 0.0360296 1.67606 0.101634C1.82268 0.167239 1.95528 0.262602 2.06614 0.38216L8.01477 6.57847L13.9634 0.382159C14.19 0.154137 14.4936 0.0279647 14.8087 0.0308167C15.1238 0.0336688 15.4252 0.165317 15.648 0.397407C15.8708 0.629498 15.9972 0.94346 16 1.27167C16.0027 1.59989 15.8816 1.91609 15.6627 2.15218L8.8644 9.2335Z" />
</svg>
