<svg width="18" height="19" viewBox="0 0 18 19" xmlns="http://www.w3.org/2000/svg">
<path fill-rule="evenodd" clip-rule="evenodd" d="M11.5714 5C11.5714 5.68199 11.3005 6.33604 10.8183 6.81827C10.336 7.30051 9.68198 7.57143 9 7.57143C8.31801 7.57143 7.66396 7.30051 7.18173 6.81827C6.69949 6.33604 6.42857 5.68199 6.42857 5C6.42857 4.31801 6.69949 3.66396 7.18173 3.18173C7.66396 2.69949 8.31801 2.42857 9 2.42857C9.68198 2.42857 10.336 2.69949 10.8183 3.18173C11.3005 3.66396 11.5714 4.31801 11.5714 5ZM13.5 5C13.5 6.19347 13.0259 7.33807 12.182 8.18198C11.3381 9.02589 10.1935 9.5 9 9.5C7.80653 9.5 6.66193 9.02589 5.81802 8.18198C4.97411 7.33807 4.5 6.19347 4.5 5C4.5 3.80653 4.97411 2.66193 5.81802 1.81802C6.66193 0.974106 7.80653 0.5 9 0.5C10.1935 0.5 11.3381 0.974106 12.182 1.81802C13.0259 2.66193 13.5 3.80653 13.5 5ZM1.92857 15.2857C1.92857 15.0234 2.21143 14.2456 3.62571 13.4099C4.93457 12.6371 6.84 12.0714 9 12.0714C11.16 12.0714 13.0654 12.6371 14.3743 13.4099C15.7886 14.2456 16.0714 15.0234 16.0714 15.2857C16.0714 15.6267 15.936 15.9537 15.6949 16.1949C15.4537 16.436 15.1267 16.5714 14.7857 16.5714H3.21429C2.87329 16.5714 2.54627 16.436 2.30515 16.1949C2.06403 15.9537 1.92857 15.6267 1.92857 15.2857ZM9 10.1429C4.05 10.1429 0 12.7143 0 15.2857C0 16.1382 0.338647 16.9558 0.941442 17.5586C1.54424 18.1614 2.3618 18.5 3.21429 18.5H14.7857C15.6382 18.5 16.4558 18.1614 17.0586 17.5586C17.6614 16.9558 18 16.1382 18 15.2857C18 12.7143 13.95 10.1429 9 10.1429Z" />
</svg>
