<svg width="30" height="35" viewBox="0 0 30 35" fill="none" xmlns="http://www.w3.org/2000/svg">
<path d="M10.7143 26.5624H19.2857C20.4643 26.5624 21.4286 25.6132 21.4286 24.453V13.9061H24.8357C26.7429 13.9061 27.7071 11.6279 26.3571 10.299L16.5214 0.61688C16.3232 0.421331 16.0877 0.266191 15.8285 0.160338C15.5693 0.0544856 15.2914 0 15.0107 0C14.7301 0 14.4522 0.0544856 14.1929 0.160338C13.9337 0.266191 13.6982 0.421331 13.5 0.61688L3.66429 10.299C2.31429 11.6279 3.25714 13.9061 5.16429 13.9061H8.57143V24.453C8.57143 25.6132 9.53571 26.5624 10.7143 26.5624ZM2.14286 30.7812H27.8571C29.0357 30.7812 30 31.7304 30 32.8906C30 34.0508 29.0357 35 27.8571 35H2.14286C0.964286 35 0 34.0508 0 32.8906C0 31.7304 0.964286 30.7812 2.14286 30.7812Z" />
</svg>
