<svg width="155" height="24" viewBox="0 0 155 24" fill="none" xmlns="http://www.w3.org/2000/svg">
<path d="M5.664 19V4.84H0.096V2.2H14.352V4.84H8.784V19H5.664ZM21.117 19.168C19.693 19.168 18.445 18.888 17.373 18.328C16.317 17.752 15.493 16.968 14.901 15.976C14.325 14.984 14.037 13.856 14.037 12.592C14.037 11.312 14.317 10.184 14.877 9.208C15.453 8.216 16.237 7.44 17.229 6.88C18.237 6.32 19.381 6.04 20.661 6.04C21.909 6.04 23.021 6.312 23.997 6.856C24.973 7.4 25.741 8.168 26.301 9.16C26.861 10.152 27.141 11.32 27.141 12.664C27.141 12.792 27.133 12.936 27.117 13.096C27.117 13.256 27.109 13.408 27.093 13.552H16.413V11.56H25.509L24.333 12.184C24.349 11.448 24.197 10.8 23.877 10.24C23.557 9.68 23.117 9.24 22.557 8.92C22.013 8.6 21.381 8.44 20.661 8.44C19.925 8.44 19.277 8.6 18.717 8.92C18.173 9.24 17.741 9.688 17.421 10.264C17.117 10.824 16.965 11.488 16.965 12.256V12.736C16.965 13.504 17.141 14.184 17.493 14.776C17.845 15.368 18.341 15.824 18.981 16.144C19.621 16.464 20.357 16.624 21.189 16.624C21.909 16.624 22.557 16.512 23.133 16.288C23.709 16.064 24.221 15.712 24.669 15.232L26.277 17.08C25.701 17.752 24.973 18.272 24.093 18.64C23.229 18.992 22.237 19.168 21.117 19.168ZM46.1987 6.04C47.2227 6.04 48.1267 6.24 48.9107 6.64C49.7107 7.04 50.3347 7.656 50.7827 8.488C51.2307 9.304 51.4547 10.36 51.4547 11.656V19H48.4547V12.04C48.4547 10.904 48.2067 10.056 47.7107 9.496C47.2147 8.936 46.5027 8.656 45.5747 8.656C44.9187 8.656 44.3347 8.8 43.8227 9.088C43.3267 9.376 42.9347 9.8 42.6467 10.36C42.3747 10.92 42.2387 11.632 42.2387 12.496V19H39.2387V12.04C39.2387 10.904 38.9907 10.056 38.4947 9.496C37.9987 8.936 37.2867 8.656 36.3587 8.656C35.7027 8.656 35.1187 8.8 34.6067 9.088C34.1107 9.376 33.7187 9.8 33.4307 10.36C33.1587 10.92 33.0227 11.632 33.0227 12.496V19H30.0227V6.184H32.8787V9.592L32.3747 8.584C32.8067 7.752 33.4307 7.12 34.2467 6.688C35.0787 6.256 36.0227 6.04 37.0787 6.04C38.2787 6.04 39.3187 6.336 40.1987 6.928C41.0947 7.52 41.6867 8.416 41.9747 9.616L40.7987 9.208C41.2147 8.248 41.9027 7.48 42.8627 6.904C43.8227 6.328 44.9347 6.04 46.1987 6.04ZM62.5603 6.04C63.5843 6.04 64.4963 6.24 65.2963 6.64C66.1123 7.04 66.7523 7.656 67.2163 8.488C67.6803 9.304 67.9123 10.36 67.9123 11.656V19H64.9123V12.04C64.9123 10.904 64.6403 10.056 64.0963 9.496C63.5683 8.936 62.8243 8.656 61.8643 8.656C61.1603 8.656 60.5363 8.8 59.9923 9.088C59.4483 9.376 59.0243 9.808 58.7203 10.384C58.4323 10.944 58.2883 11.656 58.2883 12.52V19H55.2883V6.184H58.1443V9.64L57.6403 8.584C58.0883 7.768 58.7363 7.144 59.5843 6.712C60.4483 6.264 61.4403 6.04 62.5603 6.04ZM71.718 19V6.184H74.718V19H71.718ZM73.23 4.072C72.67 4.072 72.206 3.896 71.838 3.544C71.486 3.192 71.31 2.768 71.31 2.272C71.31 1.76 71.486 1.336 71.838 0.999999C72.206 0.647999 72.67 0.472 73.23 0.472C73.79 0.472 74.246 0.639999 74.598 0.975999C74.966 1.296 75.15 1.704 75.15 2.2C75.15 2.728 74.974 3.176 74.622 3.544C74.27 3.896 73.806 4.072 73.23 4.072ZM79.7115 23.824C79.0875 23.824 78.4635 23.72 77.8395 23.512C77.2155 23.304 76.6955 23.016 76.2795 22.648L77.4795 20.44C77.7835 20.712 78.1275 20.928 78.5115 21.088C78.8955 21.248 79.2875 21.328 79.6875 21.328C80.2315 21.328 80.6715 21.192 81.0075 20.92C81.3435 20.648 81.6555 20.192 81.9435 19.552L82.6875 17.872L82.9275 17.512L87.7755 6.184H90.6555L84.6555 20.032C84.2555 20.992 83.8075 21.752 83.3115 22.312C82.8315 22.872 82.2875 23.264 81.6795 23.488C81.0875 23.712 80.4315 23.824 79.7115 23.824ZM82.3515 19.456L76.5675 6.184H79.6875L84.3915 17.248L82.3515 19.456Z" fill="white"/>
<path d="M97.9093 19.24C96.5973 19.24 95.3413 19.056 94.1413 18.688C92.9413 18.304 91.9893 17.816 91.2853 17.224L92.3653 14.8C93.0373 15.328 93.8693 15.768 94.8613 16.12C95.8533 16.472 96.8693 16.648 97.9093 16.648C98.7893 16.648 99.5013 16.552 100.045 16.36C100.589 16.168 100.989 15.912 101.245 15.592C101.501 15.256 101.629 14.88 101.629 14.464C101.629 13.952 101.445 13.544 101.077 13.24C100.709 12.92 100.229 12.672 99.6373 12.496C99.0613 12.304 98.4133 12.128 97.6933 11.968C96.9893 11.808 96.2773 11.624 95.5573 11.416C94.8533 11.192 94.2053 10.912 93.6133 10.576C93.0373 10.224 92.5653 9.76 92.1973 9.184C91.8293 8.608 91.6453 7.872 91.6453 6.976C91.6453 6.064 91.8853 5.232 92.3653 4.48C92.8613 3.712 93.6053 3.104 94.5973 2.656C95.6053 2.192 96.8773 1.96 98.4133 1.96C99.4213 1.96 100.421 2.088 101.413 2.344C102.405 2.6 103.269 2.968 104.005 3.448L103.021 5.872C102.269 5.424 101.493 5.096 100.693 4.888C99.8933 4.664 99.1253 4.552 98.3893 4.552C97.5253 4.552 96.8213 4.656 96.2773 4.864C95.7493 5.072 95.3573 5.344 95.1013 5.68C94.8613 6.016 94.7413 6.4 94.7413 6.832C94.7413 7.344 94.9173 7.76 95.2693 8.08C95.6373 8.384 96.1093 8.624 96.6853 8.8C97.2773 8.976 97.9333 9.152 98.6533 9.328C99.3733 9.488 100.085 9.672 100.789 9.88C101.509 10.088 102.157 10.36 102.733 10.696C103.325 11.032 103.797 11.488 104.149 12.064C104.517 12.64 104.701 13.368 104.701 14.248C104.701 15.144 104.453 15.976 103.957 16.744C103.477 17.496 102.733 18.104 101.725 18.568C100.717 19.016 99.4453 19.24 97.9093 19.24ZM112.331 19.168C110.923 19.168 109.835 18.808 109.067 18.088C108.299 17.352 107.915 16.272 107.915 14.848V3.352H110.915V14.776C110.915 15.384 111.067 15.856 111.371 16.192C111.691 16.528 112.131 16.696 112.691 16.696C113.363 16.696 113.923 16.52 114.371 16.168L115.211 18.304C114.859 18.592 114.427 18.808 113.915 18.952C113.403 19.096 112.875 19.168 112.331 19.168ZM105.803 8.68V6.28H114.347V8.68H105.803ZM123.017 19.168C121.705 19.168 120.537 18.888 119.513 18.328C118.489 17.752 117.681 16.968 117.089 15.976C116.497 14.984 116.201 13.856 116.201 12.592C116.201 11.312 116.497 10.184 117.089 9.208C117.681 8.216 118.489 7.44 119.513 6.88C120.537 6.32 121.705 6.04 123.017 6.04C124.345 6.04 125.521 6.32 126.545 6.88C127.585 7.44 128.393 8.208 128.969 9.184C129.561 10.16 129.857 11.296 129.857 12.592C129.857 13.856 129.561 14.984 128.969 15.976C128.393 16.968 127.585 17.752 126.545 18.328C125.521 18.888 124.345 19.168 123.017 19.168ZM123.017 16.6C123.753 16.6 124.409 16.44 124.985 16.12C125.561 15.8 126.009 15.336 126.329 14.728C126.665 14.12 126.833 13.408 126.833 12.592C126.833 11.76 126.665 11.048 126.329 10.456C126.009 9.848 125.561 9.384 124.985 9.064C124.409 8.744 123.761 8.584 123.041 8.584C122.305 8.584 121.649 8.744 121.073 9.064C120.513 9.384 120.065 9.848 119.729 10.456C119.393 11.048 119.225 11.76 119.225 12.592C119.225 13.408 119.393 14.12 119.729 14.728C120.065 15.336 120.513 15.8 121.073 16.12C121.649 16.44 122.297 16.6 123.017 16.6ZM132.726 19V6.184H135.582V9.712L135.246 8.68C135.63 7.816 136.23 7.16 137.046 6.712C137.878 6.264 138.91 6.04 140.142 6.04V8.896C140.014 8.864 139.894 8.848 139.782 8.848C139.67 8.832 139.558 8.824 139.446 8.824C138.31 8.824 137.406 9.16 136.734 9.832C136.062 10.488 135.726 11.472 135.726 12.784V19H132.726ZM148.594 19.168C147.17 19.168 145.922 18.888 144.85 18.328C143.794 17.752 142.97 16.968 142.378 15.976C141.802 14.984 141.514 13.856 141.514 12.592C141.514 11.312 141.794 10.184 142.354 9.208C142.93 8.216 143.714 7.44 144.706 6.88C145.714 6.32 146.858 6.04 148.138 6.04C149.386 6.04 150.498 6.312 151.474 6.856C152.45 7.4 153.218 8.168 153.778 9.16C154.338 10.152 154.618 11.32 154.618 12.664C154.618 12.792 154.61 12.936 154.594 13.096C154.594 13.256 154.586 13.408 154.57 13.552H143.89V11.56H152.986L151.81 12.184C151.826 11.448 151.674 10.8 151.354 10.24C151.034 9.68 150.594 9.24 150.034 8.92C149.49 8.6 148.858 8.44 148.138 8.44C147.402 8.44 146.754 8.6 146.194 8.92C145.65 9.24 145.218 9.688 144.898 10.264C144.594 10.824 144.442 11.488 144.442 12.256V12.736C144.442 13.504 144.618 14.184 144.97 14.776C145.322 15.368 145.818 15.824 146.458 16.144C147.098 16.464 147.834 16.624 148.666 16.624C149.386 16.624 150.034 16.512 150.61 16.288C151.186 16.064 151.698 15.712 152.146 15.232L153.754 17.08C153.178 17.752 152.45 18.272 151.57 18.64C150.706 18.992 149.714 19.168 148.594 19.168Z" fill="#3A5AFF"/>
</svg>
