<svg width="500" height="500" viewBox="0 0 500 500" fill="none" xmlns="http://www.w3.org/2000/svg">
<path d="M113.96 379V166.6H30.44V127H244.28V166.6H160.76V379H113.96Z" fill="white"/>
<path d="M355.062 382.6C335.382 382.6 316.542 379.84 298.542 374.32C280.542 368.56 266.262 361.24 255.702 352.36L271.902 316C281.982 323.92 294.462 330.52 309.342 335.8C324.222 341.08 339.462 343.72 355.062 343.72C368.262 343.72 378.942 342.28 387.102 339.4C395.262 336.52 401.262 332.68 405.102 327.88C408.942 322.84 410.862 317.2 410.862 310.96C410.862 303.28 408.102 297.16 402.582 292.6C397.062 287.8 389.862 284.08 380.982 281.44C372.342 278.56 362.622 275.92 351.822 273.52C341.262 271.12 330.582 268.36 319.782 265.24C309.222 261.88 299.502 257.68 290.622 252.64C281.982 247.36 274.902 240.4 269.382 231.76C263.862 223.12 261.102 212.08 261.102 198.64C261.102 184.96 264.702 172.48 271.902 161.2C279.342 149.68 290.502 140.56 305.382 133.84C320.502 126.88 339.582 123.4 362.622 123.4C377.742 123.4 392.742 125.32 407.622 129.16C422.502 133 435.462 138.52 446.502 145.72L431.742 182.08C420.462 175.36 408.822 170.44 396.822 167.32C384.822 163.96 373.302 162.28 362.262 162.28C349.302 162.28 338.742 163.84 330.582 166.96C322.662 170.08 316.782 174.16 312.942 179.2C309.342 184.24 307.542 190 307.542 196.48C307.542 204.16 310.182 210.4 315.462 215.2C320.982 219.76 328.062 223.36 336.702 226C345.582 228.64 355.422 231.28 366.222 233.92C377.022 236.32 387.702 239.08 398.262 242.2C409.062 245.32 418.782 249.4 427.422 254.44C436.302 259.48 443.382 266.32 448.662 274.96C454.182 283.6 456.942 294.52 456.942 307.72C456.942 321.16 453.222 333.64 445.782 345.16C438.582 356.44 427.422 365.56 412.302 372.52C397.182 379.24 378.102 382.6 355.062 382.6Z" fill="#3A5AFF"/>
</svg>
